<svg width="16" height="15" viewBox="0 0 16 15" fill="none" xmlns="http://www.w3.org/2000/svg">
<path d="M14.6666 10.78V12.78C14.6674 12.9657 14.6294 13.1494 14.555 13.3195C14.4806 13.4897 14.3715 13.6424 14.2347 13.7679C14.0979 13.8934 13.9364 13.989 13.7605 14.0485C13.5846 14.1079 13.3982 14.13 13.2133 14.1133C11.1619 13.8904 9.19131 13.1894 7.45998 12.0667C5.84919 11.0431 4.48353 9.67743 3.45998 8.06665C2.33329 6.32745 1.63214 4.34731 1.41331 2.28665C1.39665 2.10229 1.41856 1.91649 1.47764 1.74107C1.53673 1.56564 1.63169 1.40444 1.75649 1.26773C1.88128 1.13102 2.03318 1.02179 2.2025 0.946998C2.37183 0.872206 2.55487 0.833491 2.73998 0.833317H4.73998C5.06351 0.830132 5.37717 0.944702 5.62248 1.15567C5.8678 1.36664 6.02803 1.65961 6.07331 1.97998C6.15772 2.62003 6.31428 3.24847 6.53998 3.85332C6.62967 4.09193 6.64908 4.35126 6.59591 4.60057C6.54274 4.84988 6.41922 5.07872 6.23998 5.25998L5.39331 6.10665C6.34235 7.77568 7.72428 9.15761 9.39331 10.1066L10.24 9.25998C10.4212 9.08074 10.6501 8.95722 10.8994 8.90405C11.1487 8.85088 11.408 8.87029 11.6466 8.95998C12.2515 9.18568 12.8799 9.34224 13.52 9.42665C13.8438 9.47234 14.1396 9.63545 14.351 9.88498C14.5624 10.1345 14.6748 10.453 14.6666 10.78Z" stroke="#F5F5F5" stroke-width="1.6" stroke-linecap="round" stroke-linejoin="round"/>
</svg>
